<svg width="24" height="24" viewBox="0 0 24 24" fill="none" xmlns="http://www.w3.org/2000/svg">
<path d="M3 9.5V19H5M3 9.5V4H21V9.5M3 9.5H21M21 9.5V19H18.5" stroke="#777779" stroke-width="1.5" stroke-linecap="round" stroke-linejoin="round"/>
<path d="M16 18.5387V17.4613C15.4497 17.2657 15.102 17.2107 14.927 16.7883V16.788C14.7513 16.3643 14.9603 16.0767 15.2093 15.5523L14.4477 14.7907C13.9273 15.038 13.6367 15.249 13.212 15.073H13.2117C12.7887 14.8977 12.7333 14.5477 12.5387 14H11.4613C11.2673 14.545 11.2117 14.8973 10.7883 15.073H10.788C10.3643 15.249 10.0773 15.0403 9.55233 14.7907L8.79067 15.5523C9.039 16.075 9.249 16.3637 9.073 16.788C8.89733 17.2117 8.545 17.2673 8 17.4613V18.5387C8.544 18.732 8.89733 18.7883 9.073 19.2117C9.24967 19.639 9.035 19.9337 8.79067 20.4473L9.55233 21.2093C10.073 20.9617 10.3637 20.751 10.788 20.927H10.7883C11.2117 21.1023 11.267 21.4533 11.4613 22H12.5387C12.7327 21.4547 12.7887 21.1033 13.2143 20.926H13.2147C13.6353 20.7513 13.9213 20.9597 14.4473 21.2097L15.209 20.4477C14.961 19.9267 14.7507 19.6367 14.9263 19.2123C15.102 18.7887 15.4557 18.7323 16 18.5387ZM12 19.3333C11.2637 19.3333 10.6667 18.7363 10.6667 18C10.6667 17.2637 11.2637 16.6667 12 16.6667C12.7363 16.6667 13.3333 17.2637 13.3333 18C13.3333 18.7363 12.7363 19.3333 12 19.3333Z" fill="#777779"/>
<circle cx="5.75" cy="6.75" r="0.75" fill="#777779"/>
<circle cx="8.75" cy="6.75" r="0.75" fill="#777779"/>
<circle cx="11.75" cy="6.75" r="0.75" fill="#777779"/>
</svg>
