<svg width="20" height="20" viewBox="0 0 20 20" fill="none" xmlns="http://www.w3.org/2000/svg">
<path d="M10.0001 1.66602C5.40008 1.66602 1.66675 5.39935 1.66675 9.99935C1.66675 14.5993 5.40008 18.3327 10.0001 18.3327C14.6001 18.3327 18.3334 14.5993 18.3334 9.99935C18.3334 5.39935 14.6001 1.66602 10.0001 1.66602ZM10.0001 16.666C6.32508 16.666 3.33341 13.6743 3.33341 9.99935C3.33341 6.32435 6.32508 3.33268 10.0001 3.33268C13.6751 3.33268 16.6667 6.32435 16.6667 9.99935C16.6667 13.6743 13.6751 16.666 10.0001 16.666ZM13.2334 6.90768L8.33341 11.8077L6.76675 10.241C6.44175 9.91602 5.91675 9.91602 5.59175 10.241C5.26675 10.566 5.26675 11.091 5.59175 11.416L7.75008 13.5743C8.07508 13.8993 8.60008 13.8993 8.92508 13.5743L14.4167 8.08268C14.7417 7.75768 14.7417 7.23268 14.4167 6.90768C14.0917 6.58268 13.5584 6.58268 13.2334 6.90768V6.90768Z" fill="#3CB296"/>
</svg>
