<svg width="24" height="25" viewBox="0 0 24 25" fill="none" xmlns="http://www.w3.org/2000/svg">
<g clip-path="url(#clip0_756_41570)">
<path d="M18.3 6.20875C17.91 5.81875 17.28 5.81875 16.89 6.20875L12 11.0888L7.10997 6.19875C6.71997 5.80875 6.08997 5.80875 5.69997 6.19875C5.30997 6.58875 5.30997 7.21875 5.69997 7.60875L10.59 12.4988L5.69997 17.3887C5.30997 17.7787 5.30997 18.4087 5.69997 18.7987C6.08997 19.1887 6.71997 19.1887 7.10997 18.7987L12 13.9087L16.89 18.7987C17.28 19.1887 17.91 19.1887 18.3 18.7987C18.69 18.4087 18.69 17.7787 18.3 17.3887L13.41 12.4988L18.3 7.60875C18.68 7.22875 18.68 6.58875 18.3 6.20875Z" fill="#E31B1A"/>
</g>
<defs>
<clipPath id="clip0_756_41570">
<rect width="24" height="24" fill="white" transform="translate(0 0.5)"/>
</clipPath>
</defs>
</svg>
