<svg width="24" height="25" viewBox="0 0 24 25" fill="none" xmlns="http://www.w3.org/2000/svg">
<path fill-rule="evenodd" clip-rule="evenodd" d="M3.75 4.5C3.75 3.5335 4.5335 2.75 5.5 2.75L14.8089 2.75C15.3007 2.75 15.7697 2.95689 16.1013 3.32003L20.7923 8.45788C21.0868 8.78033 21.25 9.2012 21.25 9.63785L21.25 20.5C21.25 21.4665 20.4665 22.25 19.5 22.25L5.5 22.25C4.5335 22.25 3.75 21.4665 3.75 20.5L3.75 4.5ZM5.5 4.25C5.36193 4.25 5.25 4.36193 5.25 4.5L5.25 20.5C5.25 20.6381 5.36193 20.75 5.5 20.75L19.5 20.75C19.6381 20.75 19.75 20.6381 19.75 20.5L19.75 9.63785C19.75 9.57547 19.7267 9.51535 19.6846 9.46928L14.9935 4.33143C14.9462 4.27956 14.8792 4.25 14.8089 4.25L5.5 4.25Z" fill="#085BE7"/>
<path fill-rule="evenodd" clip-rule="evenodd" d="M8.75 15.5C8.75 15.0858 9.08579 14.75 9.5 14.75H15.75C16.1642 14.75 16.5 15.0858 16.5 15.5C16.5 15.9142 16.1642 16.25 15.75 16.25H9.5C9.08579 16.25 8.75 15.9142 8.75 15.5Z" fill="#085BE7"/>
<path fill-rule="evenodd" clip-rule="evenodd" d="M13.9643 3.50086C14.3781 3.48116 14.7295 3.8006 14.7492 4.21434L14.9538 8.51191C14.9602 8.6452 15.0701 8.75002 15.2035 8.75002H20.5C20.9142 8.75002 21.25 9.0858 21.25 9.50002C21.25 9.91423 20.9142 10.25 20.5 10.25H15.2035C14.2694 10.25 13.4999 9.51634 13.4555 8.58326L13.2509 4.28569C13.2312 3.87194 13.5506 3.52057 13.9643 3.50086Z" fill="#085BE7"/>
</svg>
