<svg width="64" height="64" viewBox="0 0 64 64" fill="none" xmlns="http://www.w3.org/2000/svg">
<path fill-rule="evenodd" clip-rule="evenodd" d="M31.3333 48.668C30.2287 48.668 29.3333 47.7725 29.3333 46.668L29.3333 10.668C29.3333 9.5634 30.2287 8.66796 31.3333 8.66796C32.4378 8.66796 33.3333 9.5634 33.3333 10.668L33.3333 46.668C33.3333 47.7725 32.4378 48.668 31.3333 48.668Z" fill="#373935"/>
<path fill-rule="evenodd" clip-rule="evenodd" d="M8 40.668C9.10457 40.668 10 41.5634 10 42.668V51.3346L54 51.3346V42.668C54 41.5634 54.8954 40.668 56 40.668C57.1046 40.668 58 41.5634 58 42.668V53.3346C58 54.4392 57.1046 55.3346 56 55.3346L8 55.3346C6.89543 55.3346 6 54.4392 6 53.3346L6 42.668C6 41.5634 6.89543 40.668 8 40.668Z" fill="#373935"/>
<path fill-rule="evenodd" clip-rule="evenodd" d="M18.6267 22.7861C17.8236 22.0276 17.7875 20.7618 18.5459 19.9588L29.8792 7.95878C30.2502 7.56594 30.7644 7.33994 31.3047 7.33223C31.845 7.32451 32.3654 7.53573 32.7475 7.91781L44.7475 19.9178C45.5285 20.6989 45.5285 21.9652 44.7475 22.7462C43.9664 23.5273 42.7001 23.5273 41.919 22.7462L31.3742 12.2014L21.4539 22.7053C20.6955 23.5083 19.4297 23.5445 18.6267 22.7861Z" fill="#373935"/>
</svg>
