<svg width="32" height="32" viewBox="0 0 32 32" fill="none" xmlns="http://www.w3.org/2000/svg">
<path fill-rule="evenodd" clip-rule="evenodd" d="M5 5.33333C5 4.04467 6.04467 3 7.33333 3H19.7452C20.4009 3 21.0263 3.27585 21.4684 3.76004L27.7231 10.6105C28.1157 11.0404 28.3333 11.6016 28.3333 12.1838V26.6667C28.3333 27.9553 27.2887 29 26 29H7.33333C6.04467 29 5 27.9553 5 26.6667V5.33333ZM7.33333 5C7.14924 5 7 5.14924 7 5.33333V26.6667C7 26.8508 7.14924 27 7.33333 27H26C26.1841 27 26.3333 26.8508 26.3333 26.6667V12.1838C26.3333 12.1006 26.3022 12.0205 26.2462 11.959L19.9914 5.10858C19.9282 5.03941 19.8389 5 19.7452 5H7.33333Z" fill="#373935"/>
<path fill-rule="evenodd" clip-rule="evenodd" d="M11.6666 20C11.6666 19.4477 12.1143 19 12.6666 19H21C21.5522 19 22 19.4477 22 20C22 20.5523 21.5522 21 21 21H12.6666C12.1143 21 11.6666 20.5523 11.6666 20Z" fill="#373935"/>
<path fill-rule="evenodd" clip-rule="evenodd" d="M18.6191 4.00115C19.1707 3.97488 19.6392 4.4008 19.6655 4.95246L19.9384 10.6825C19.9468 10.8603 20.0934 11 20.2713 11H27.3333C27.8856 11 28.3333 11.4477 28.3333 12C28.3333 12.5523 27.8856 13 27.3333 13H20.2713C19.0258 13 17.9999 12.0218 17.9406 10.7777L17.6678 5.04759C17.6415 4.49593 18.0674 4.02742 18.6191 4.00115Z" fill="#373935"/>
</svg>
