<svg width="24" height="25" viewBox="0 0 24 25" fill="none" xmlns="http://www.w3.org/2000/svg">
<path fill-rule="evenodd" clip-rule="evenodd" d="M12 3.25C12.4142 3.25 12.75 3.58579 12.75 4V17.5C12.75 17.9142 12.4142 18.25 12 18.25C11.5858 18.25 11.25 17.9142 11.25 17.5V4C11.25 3.58579 11.5858 3.25 12 3.25Z" fill="#085BE7"/>
<path fill-rule="evenodd" clip-rule="evenodd" d="M3 15.75C3.41421 15.75 3.75 16.0858 3.75 16.5V19.75H20.25V16.5C20.25 16.0858 20.5858 15.75 21 15.75C21.4142 15.75 21.75 16.0858 21.75 16.5V20.5C21.75 20.9142 21.4142 21.25 21 21.25H3C2.58579 21.25 2.25 20.9142 2.25 20.5V16.5C2.25 16.0858 2.58579 15.75 3 15.75Z" fill="#085BE7"/>
<path fill-rule="evenodd" clip-rule="evenodd" d="M16.765 12.9547C17.0661 13.2392 17.0797 13.7138 16.7953 14.015L12.5453 18.515C12.4061 18.6623 12.2133 18.747 12.0107 18.7499C11.8081 18.7528 11.6129 18.6736 11.4697 18.5303L6.96967 14.0303C6.67678 13.7374 6.67678 13.2626 6.96967 12.9697C7.26256 12.6768 7.73744 12.6768 8.03033 12.9697L11.9846 16.924L15.7047 12.985C15.9891 12.6839 16.4638 12.6703 16.765 12.9547Z" fill="#085BE7"/>
</svg>
