<svg width="24" height="24" viewBox="0 0 24 24" fill="none" xmlns="http://www.w3.org/2000/svg">
<path d="M10.2009 9.08124L9.2109 7.69526C8.72326 7.01256 9.24242 6.06902 10.0801 6.11556L15.2527 6.40293C16.0253 6.44585 16.4585 7.31228 16.0293 7.95609L15.2969 9.0547C15.1114 9.3329 14.7992 9.5 14.4648 9.5H11.0146C10.6917 9.5 10.3886 9.34403 10.2009 9.08124Z" fill="#EFC300" stroke="#777779" stroke-width="1.5" stroke-linecap="round"/>
<ellipse cx="12.5" cy="5" rx="4.5" ry="2" fill="#EFC300" stroke="#777779" stroke-width="1.5"/>
<path d="M8.28464 6.24612C8.10062 6.79188 8 7.38289 8 8.00002C8 10.7614 10.0147 13 12.5 13C14.9853 13 17 10.7614 17 8.00002C17 7.35814 16.8911 6.7445 16.6928 6.18066" stroke="#777779" stroke-width="1.5"/>
<path d="M9 11.5L5 13.5C4 14.6667 2.1 17.6 2.5 20H5L5.99995 18.5L6.99995 20H17.4999L18.9999 18.5L19.9999 20H22.4999C22.3333 18.3333 21.5999 14.7 19.9999 13.5L15.9999 12" stroke="#777779" stroke-width="1.5" stroke-linecap="round"/>
<ellipse cx="14" cy="5.5" rx="1" ry="0.5" fill="white"/>
</svg>
