<svg width="24" height="24" viewBox="0 0 24 24" fill="none" xmlns="http://www.w3.org/2000/svg">
<ellipse cx="12.5" cy="5" rx="4.5" ry="2" stroke="#777779" stroke-width="1.5"/>
<path d="M8.28464 6.24612C8.10062 6.79188 8 7.38289 8 8.00002C8 10.7614 10.0147 13 12.5 13C14.9853 13 17 10.7614 17 8.00002C17 7.35814 16.8911 6.7445 16.6928 6.18066" stroke="#777779" stroke-width="1.5"/>
<path d="M8.5 7L10.1998 9.12469C10.3895 9.36191 10.6768 9.5 10.9806 9.5H14.4648C14.7992 9.5 15.1114 9.3329 15.2969 9.0547L17 6.5" stroke="#777779" stroke-width="1.5" stroke-linecap="round"/>
<path d="M9 11.5L5 13.5C4 14.6667 2.1 17.6 2.5 20H5L5.99995 18.5L6.99995 20H12.4999M15.9999 12L17.9999 12.75" stroke="#777779" stroke-width="1.5" stroke-linecap="round"/>
<path d="M23 18.5387V17.4613C22.4497 17.2657 22.102 17.2107 21.927 16.7883V16.788C21.7513 16.3643 21.9603 16.0767 22.2093 15.5523L21.4477 14.7907C20.9273 15.038 20.6367 15.249 20.212 15.073H20.2117C19.7887 14.8977 19.7333 14.5477 19.5387 14H18.4613C18.2673 14.545 18.2117 14.8973 17.7883 15.073H17.788C17.3643 15.249 17.0773 15.0403 16.5523 14.7907L15.7907 15.5523C16.039 16.075 16.249 16.3637 16.073 16.788C15.8973 17.2117 15.545 17.2673 15 17.4613V18.5387C15.544 18.732 15.8973 18.7883 16.073 19.2117C16.2497 19.639 16.035 19.9337 15.7907 20.4473L16.5523 21.2093C17.073 20.9617 17.3637 20.751 17.788 20.927H17.7883C18.2117 21.1023 18.267 21.4533 18.4613 22H19.5387C19.7327 21.4547 19.7887 21.1033 20.2143 20.926H20.2147C20.6353 20.7513 20.9213 20.9597 21.4473 21.2097L22.209 20.4477C21.961 19.9267 21.7507 19.6367 21.9263 19.2123C22.102 18.7887 22.4557 18.7323 23 18.5387ZM19 19.3333C18.2637 19.3333 17.6667 18.7363 17.6667 18C17.6667 17.2637 18.2637 16.6667 19 16.6667C19.7363 16.6667 20.3333 17.2637 20.3333 18C20.3333 18.7363 19.7363 19.3333 19 19.3333Z" fill="#777779"/>
</svg>
