<svg width="24" height="24" viewBox="0 0 24 24" fill="none" xmlns="http://www.w3.org/2000/svg">
<path d="M19 17.8367V17.1633C18.656 17.041 18.4387 17.0067 18.3294 16.7427C18.2196 16.4779 18.3502 16.2979 18.5058 15.9702L18.0298 15.4942C17.7046 15.6488 17.5229 15.7806 17.2575 15.6706C16.9931 15.561 16.9583 15.3423 16.8367 15H16.1633C16.0421 15.3406 16.0073 15.5608 15.7427 15.6706C15.4779 15.7806 15.2983 15.6502 14.9702 15.4942L14.4942 15.9702C14.6494 16.2969 14.7806 16.4773 14.6706 16.7425C14.5608 17.0073 14.3406 17.0421 14 17.1633V17.8367C14.34 17.9575 14.5608 17.9927 14.6706 18.2573C14.781 18.5244 14.6469 18.7085 14.4942 19.0296L14.9702 19.5058C15.2956 19.351 15.4773 19.2194 15.7425 19.3294C16.0071 19.439 16.0419 19.6583 16.1633 20H16.8367C16.9579 19.6592 16.9929 19.4396 17.259 19.3288C17.5219 19.2196 17.7008 19.3498 18.0296 19.506L18.5056 19.0298C18.3506 18.7042 18.2192 18.5229 18.329 18.2577C18.4388 17.9929 18.6598 17.9577 19 17.8367ZM16.5 18.3333C16.0398 18.3333 15.6667 17.9602 15.6667 17.5C15.6667 17.0398 16.0398 16.6667 16.5 16.6667C16.9602 16.6667 17.3333 17.0398 17.3333 17.5C17.3333 17.9602 16.9602 18.3333 16.5 18.3333Z" fill="#777779"/>
<path d="M11 4H4V18H11V4ZM11 4L21 5.5V16" stroke="#777779" stroke-width="1.5" stroke-linecap="round" stroke-linejoin="round"/>
</svg>
