<svg width="60" height="55" viewBox="0 0 60 55" fill="none" xmlns="http://www.w3.org/2000/svg">
<path d="M49.5333 16.4005V10.6672H43.7999V6.66719H49.5333V0.867188H53.5333V6.66719H59.3333V10.6672H53.5333V16.4005H49.5333ZM4.2666 54.6672C3.19993 54.6672 2.2666 54.2672 1.4666 53.4672C0.666601 52.6672 0.266602 51.7339 0.266602 50.6672V16.4672C0.266602 15.445 0.666601 14.5227 1.4666 13.7005C2.2666 12.8783 3.19993 12.4672 4.2666 12.4672H14.0666L18.9333 6.66719H37.5999V10.6672H20.7999L15.9333 16.4672H4.2666V50.6672H49.5999V22.6672H53.5999V50.6672C53.5999 51.7339 53.1888 52.6672 52.3666 53.4672C51.5444 54.2672 50.6222 54.6672 49.5999 54.6672H4.2666ZM26.9333 44.9339C30.1333 44.9339 32.8222 43.845 34.9999 41.6672C37.1777 39.4894 38.2666 36.7783 38.2666 33.5339C38.2666 30.3339 37.1777 27.6561 34.9999 25.5005C32.8222 23.345 30.1333 22.2672 26.9333 22.2672C23.6888 22.2672 20.9888 23.345 18.8333 25.5005C16.6777 27.6561 15.5999 30.3339 15.5999 33.5339C15.5999 36.7783 16.6777 39.4894 18.8333 41.6672C20.9888 43.845 23.6888 44.9339 26.9333 44.9339ZM26.9333 40.9339C24.7999 40.9339 23.0444 40.2339 21.6666 38.8339C20.2888 37.4339 19.5999 35.6672 19.5999 33.5339C19.5999 31.445 20.2888 29.7116 21.6666 28.3339C23.0444 26.9561 24.7999 26.2672 26.9333 26.2672C29.0222 26.2672 30.7666 26.9561 32.1666 28.3339C33.5666 29.7116 34.2666 31.445 34.2666 33.5339C34.2666 35.6672 33.5666 37.4339 32.1666 38.8339C30.7666 40.2339 29.0222 40.9339 26.9333 40.9339Z" fill="#373935"/>
</svg>
