<svg width="24" height="24" viewBox="0 0 24 24" fill="none" xmlns="http://www.w3.org/2000/svg">
<path d="M5 2H19V21C17.9184 21 16.9308 19 16 19C14.5783 19 13.2892 21 12 21C10.7653 21 9.53067 19 8.17957 19C7.19634 19 6.15144 21 5 21V2Z" stroke="#777779" stroke-width="1.5" stroke-linejoin="round"/>
<path d="M14 8.91823C14 8.13318 13.529 7.69159 12.4275 7.40421V6.34579C12.7319 6.4229 13.0362 6.57009 13.3261 6.75935L13.8116 5.93925C13.4203 5.6729 12.9783 5.49065 12.4638 5.42056V5H11.7101V5.40654C10.7971 5.49766 10.1884 6.00935 10.1884 6.78738C10.1884 7.61449 10.7029 8.00701 11.7464 8.28037V9.39486C11.3188 9.31075 10.9565 9.11449 10.5652 8.8271L10 9.62617C10.4783 9.97664 11.087 10.215 11.7101 10.2921V11H12.4638V10.3061C13.3841 10.2079 14 9.69626 14 8.91823ZM11.7464 7.22897C11.3478 7.08879 11.2464 6.94159 11.2464 6.7243C11.2464 6.5 11.3986 6.33178 11.7464 6.28271V7.22897ZM12.942 8.9743C12.942 9.22664 12.7681 9.38084 12.4275 9.42991V8.4486C12.8188 8.58878 12.942 8.73598 12.942 8.9743Z" fill="#777779"/>
<path d="M8 13H16" stroke="#777779" stroke-width="1.5" stroke-linecap="round"/>
<path d="M8 16H11" stroke="#777779" stroke-width="1.5" stroke-linecap="round"/>
</svg>
