<svg width="24" height="24" viewBox="0 0 24 24" fill="none" xmlns="http://www.w3.org/2000/svg">
<path d="M4 6.66667L9 4V10.6667V17.3333L4 20V6.66667Z" fill="#EFC300"/>
<path d="M20 17.3333L15 20V13.3333V6.66667L20 4V17.3333Z" fill="#EFC300"/>
<path d="M4 6.66667L9 4V10.6667V17.3333L4 20V6.66667Z" fill="#EFC300"/>
<path d="M9 4L4 6.66667V20L9 17.3333M9 4V10.6667V17.3333M9 4L15 6.66667V20L9 17.3333" stroke="#777779" stroke-width="1.5" stroke-linejoin="round"/>
<path d="M20 17.3333L15 20V13.3333V6.66667L20 4V17.3333Z" fill="#EFC300" stroke="#777779" stroke-width="1.5" stroke-linejoin="round"/>
<path d="M18.5 6.5V16" stroke="white"/>
<path d="M7 7V16.5" stroke="white"/>
</svg>
