<svg width="32" height="26" viewBox="0 0 32 26" fill="none" xmlns="http://www.w3.org/2000/svg">
<g clip-path="url(#clip0_756_41415)">
<path d="M5.79969 25.4471V23.7879C5.79969 23.1533 5.41538 22.7377 4.75566 22.7377C4.42579 22.7377 4.0671 22.8472 3.82051 23.208C3.62835 22.9052 3.35293 22.7377 2.9398 22.7377C2.66438 22.7377 2.38896 22.8214 2.17119 23.1243V22.7924H1.59473V25.4471H2.17119V23.9812C2.17119 23.5109 2.41779 23.2886 2.80209 23.2886C3.1864 23.2886 3.37855 23.5366 3.37855 23.9812V25.4471H3.95501V23.9812C3.95501 23.5109 4.23043 23.2886 4.58592 23.2886C4.97023 23.2886 5.16238 23.5366 5.16238 23.9812V25.4471H5.79969ZM14.3505 22.7924H13.4154V21.9903H12.8389V22.7924H12.3169V23.3176H12.8389V24.5354C12.8389 25.1442 13.0855 25.5019 13.7452 25.5019C13.9918 25.5019 14.2673 25.4181 14.4594 25.3086L14.2929 24.8092C14.1264 24.9187 13.9342 24.9477 13.7965 24.9477C13.5211 24.9477 13.4122 24.7802 13.4122 24.5064V23.3176H14.3473V22.7924H14.3505ZM19.244 22.7345C18.9142 22.7345 18.6932 22.902 18.5555 23.1211V22.7892H17.979V25.4439H18.5555V23.949C18.5555 23.5077 18.7476 23.2564 19.1063 23.2564C19.2152 23.2564 19.3529 23.2854 19.465 23.3111L19.6316 22.757C19.5163 22.7345 19.3529 22.7345 19.244 22.7345ZM11.8493 23.0115C11.5739 22.8182 11.1896 22.7345 10.7765 22.7345C10.1167 22.7345 9.67799 23.0663 9.67799 23.5914C9.67799 24.0328 10.0079 24.2841 10.5843 24.3646L10.8597 24.3936C11.1608 24.4484 11.3273 24.5321 11.3273 24.6707C11.3273 24.864 11.1063 25.0025 10.722 25.0025C10.3377 25.0025 10.0335 24.864 9.84132 24.7254L9.5659 25.1668C9.86694 25.3891 10.2801 25.4986 10.6932 25.4986C11.4618 25.4986 11.9038 25.1378 11.9038 24.6417C11.9038 24.1713 11.5451 23.9232 10.9974 23.8395L10.722 23.8105C10.4754 23.7815 10.2833 23.7267 10.2833 23.5624C10.2833 23.3691 10.4754 23.2596 10.7797 23.2596C11.1095 23.2596 11.4394 23.3981 11.6059 23.4819L11.8493 23.0115ZM27.1864 22.7345C26.8565 22.7345 26.6356 22.902 26.4979 23.1211V22.7892H25.9214V25.4439H26.4979V23.949C26.4979 23.5077 26.69 23.2564 27.0487 23.2564C27.1576 23.2564 27.2953 23.2854 27.4074 23.3111L27.5739 22.7635C27.4618 22.7345 27.2985 22.7345 27.1864 22.7345ZM19.8205 24.1198C19.8205 24.922 20.3713 25.5019 21.2232 25.5019C21.6075 25.5019 21.883 25.4181 22.1584 25.199L21.883 24.7287C21.662 24.8962 21.4442 24.9767 21.1944 24.9767C20.7268 24.9767 20.397 24.6449 20.397 24.1198C20.397 23.6204 20.7268 23.2886 21.1944 23.2628C21.441 23.2628 21.662 23.3466 21.883 23.5109L22.1584 23.0405C21.883 22.8182 21.6075 22.7377 21.2232 22.7377C20.3713 22.7345 19.8205 23.3176 19.8205 24.1198ZM25.1528 24.1198V22.7924H24.5763V23.1243C24.3842 22.8762 24.1087 22.7377 23.75 22.7377C23.0071 22.7377 22.4306 23.3176 22.4306 24.1198C22.4306 24.922 23.0071 25.5019 23.75 25.5019C24.1344 25.5019 24.4098 25.3633 24.5763 25.1153V25.4471H25.1528V24.1198ZM23.0359 24.1198C23.0359 23.6494 23.3369 23.2628 23.8333 23.2628C24.3009 23.2628 24.6308 23.6236 24.6308 24.1198C24.6308 24.5901 24.3009 24.9767 23.8333 24.9767C23.3401 24.9477 23.0359 24.5869 23.0359 24.1198ZM16.1376 22.7345C15.3689 22.7345 14.8181 23.2886 14.8181 24.1165C14.8181 24.9477 15.3689 25.4986 16.1664 25.4986C16.5507 25.4986 16.935 25.3891 17.2392 25.1378L16.9638 24.7222C16.7428 24.8897 16.4674 24.9993 16.1952 24.9993C15.8365 24.9993 15.481 24.8318 15.3978 24.3646H17.3481C17.3481 24.2808 17.3481 24.2261 17.3481 24.1423C17.3738 23.2886 16.8774 22.7345 16.1376 22.7345ZM16.1376 23.2338C16.4962 23.2338 16.7428 23.4561 16.7973 23.8685H15.4234C15.4778 23.5109 15.7244 23.2338 16.1376 23.2338ZM30.4594 24.1198V21.7422H29.883V23.1243C29.6908 22.8762 29.4154 22.7377 29.0567 22.7377C28.3137 22.7377 27.7372 23.3176 27.7372 24.1198C27.7372 24.922 28.3137 25.5019 29.0567 25.5019C29.441 25.5019 29.7164 25.3633 29.883 25.1153V25.4471H30.4594V24.1198ZM28.3425 24.1198C28.3425 23.6494 28.6436 23.2628 29.14 23.2628C29.6075 23.2628 29.9374 23.6236 29.9374 24.1198C29.9374 24.5901 29.6075 24.9767 29.14 24.9767C28.6436 24.9477 28.3425 24.5869 28.3425 24.1198ZM9.04389 24.1198V22.7924H8.46742V23.1243C8.27527 22.8762 7.99985 22.7377 7.64116 22.7377C6.89817 22.7377 6.32171 23.3176 6.32171 24.1198C6.32171 24.922 6.89817 25.5019 7.64116 25.5019C8.02547 25.5019 8.30089 25.3633 8.46742 25.1153V25.4471H9.04389V24.1198ZM6.90137 24.1198C6.90137 23.6494 7.20241 23.2628 7.69881 23.2628C8.16638 23.2628 8.49625 23.6236 8.49625 24.1198C8.49625 24.5901 8.16638 24.9767 7.69881 24.9767C7.20241 24.9477 6.90137 24.5869 6.90137 24.1198Z" fill="black"/>
<path d="M20.317 2.62891H11.6572V18.2797H20.317V2.62891Z" fill="#FF5A00"/>
<path d="M12.2338 10.4549C12.2338 7.27513 13.7198 4.45296 16 2.62951C14.3219 1.30219 12.205 0.5 9.89592 0.5C4.42594 0.5 0 4.95232 0 10.4549C0 15.9575 4.42594 20.4098 9.89592 20.4098C12.205 20.4098 14.3219 19.6076 16 18.2803C13.7166 16.4826 12.2338 13.6347 12.2338 10.4549Z" fill="#EB001B"/>
<path d="M32 10.4549C32 15.9575 27.5741 20.4098 22.1041 20.4098C19.795 20.4098 17.6781 19.6076 16 18.2803C18.309 16.4536 19.7662 13.6347 19.7662 10.4549C19.7662 7.27513 18.2802 4.45296 16 2.62951C17.6749 1.30219 19.7918 0.5 22.1009 0.5C27.5741 0.5 32 4.98131 32 10.4549Z" fill="#F79E1B"/>
</g>
<defs>
<clipPath id="clip0_756_41415">
<rect width="32" height="25" fill="white" transform="translate(0 0.5)"/>
</clipPath>
</defs>
</svg>
