<svg width="24" height="24" viewBox="0 0 24 24" fill="none" xmlns="http://www.w3.org/2000/svg">
<path fill-rule="evenodd" clip-rule="evenodd" d="M12 6C9.23858 6 7 8.23858 7 11V15.5L4 19.0556H20L17 15.627V11C17 8.23858 14.7614 6 12 6Z" fill="#EFC300"/>
<path d="M7 15.5L7.57322 15.9837C7.68738 15.8484 7.75 15.677 7.75 15.5H7ZM4 19.0556L3.42678 18.5719C3.23858 18.795 3.19686 19.1069 3.31984 19.3716C3.44282 19.6363 3.70816 19.8056 4 19.8056V19.0556ZM20 19.0556V19.8056C20.2943 19.8056 20.5614 19.6335 20.683 19.3655C20.8046 19.0975 20.7582 18.7832 20.5644 18.5617L20 19.0556ZM17 15.627H16.25C16.25 15.8087 16.3159 15.9841 16.4356 16.1209L17 15.627ZM7.75 11C7.75 8.65279 9.65279 6.75 12 6.75V5.25C8.82436 5.25 6.25 7.82436 6.25 11H7.75ZM7.75 15.5V11H6.25V15.5H7.75ZM4.57322 19.5392L7.57322 15.9837L6.42678 15.0164L3.42678 18.5719L4.57322 19.5392ZM20 18.3056H4V19.8056H20V18.3056ZM16.4356 16.1209L19.4356 19.5494L20.5644 18.5617L17.5644 15.1331L16.4356 16.1209ZM16.25 11V15.627H17.75V11H16.25ZM12 6.75C14.3472 6.75 16.25 8.65279 16.25 11H17.75C17.75 7.82436 15.1756 5.25 12 5.25V6.75Z" fill="#777779"/>
<path d="M12 4V2.5" stroke="#777779" stroke-width="1.5" stroke-linecap="round"/>
<path d="M12 22V21" stroke="#777779" stroke-width="1.5" stroke-linecap="round"/>
</svg>
