<svg width="56" height="56" viewBox="0 0 56 56" fill="none" xmlns="http://www.w3.org/2000/svg">
<rect x="7" y="18.668" width="42" height="30.3333" fill="#EFC300"/>
<path d="M43.1667 24.5V43.1667" stroke="white" stroke-width="2.33333" stroke-linecap="round"/>
<path fill-rule="evenodd" clip-rule="evenodd" d="M46.6668 12.832H9.33342C8.68908 12.832 8.16675 13.3544 8.16675 13.9987V46.6654C8.16675 47.3097 8.68908 47.832 9.33342 47.832H46.6668C47.3111 47.832 47.8334 47.3097 47.8334 46.6654V13.9987C47.8334 13.3544 47.3111 12.832 46.6668 12.832ZM9.33342 9.33203C6.75609 9.33203 4.66675 11.4214 4.66675 13.9987V46.6654C4.66675 49.2427 6.75609 51.332 9.33342 51.332H46.6668C49.2441 51.332 51.3334 49.2427 51.3334 46.6654V13.9987C51.3334 11.4214 49.2441 9.33203 46.6668 9.33203H9.33342Z" fill="#777779"/>
<path fill-rule="evenodd" clip-rule="evenodd" d="M16.3333 5.25C17.2998 5.25 18.0833 6.0335 18.0833 7L18.0833 14C18.0833 14.9665 17.2998 15.75 16.3333 15.75C15.3668 15.75 14.5833 14.9665 14.5833 14L14.5833 7C14.5833 6.0335 15.3668 5.25 16.3333 5.25Z" fill="#777779"/>
<path fill-rule="evenodd" clip-rule="evenodd" d="M39.6667 5.25C40.6332 5.25 41.4167 6.0335 41.4167 7L41.4167 14C41.4167 14.9665 40.6332 15.75 39.6667 15.75C38.7003 15.75 37.9167 14.9665 37.9167 14L37.9167 7C37.9167 6.0335 38.7002 5.25 39.6667 5.25Z" fill="#777779"/>
<path fill-rule="evenodd" clip-rule="evenodd" d="M5.25 18.668C5.25 17.7015 6.0335 16.918 7 16.918H49C49.9665 16.918 50.75 17.7015 50.75 18.668C50.75 19.6345 49.9665 20.418 49 20.418H7C6.0335 20.418 5.25 19.6345 5.25 18.668Z" fill="#777779"/>
<path d="M18.6665 27.9974C18.6665 26.7087 19.7112 25.6641 20.9998 25.6641H23.3332C24.6218 25.6641 25.6665 26.7087 25.6665 27.9974V30.3307C25.6665 31.6194 24.6218 32.6641 23.3332 32.6641H20.9998C19.7112 32.6641 18.6665 31.6194 18.6665 30.3307V27.9974Z" fill="#777779"/>
<path d="M30.3333 27.9974C30.3333 26.7087 31.3779 25.6641 32.6666 25.6641H34.9999C36.2886 25.6641 37.3333 26.7087 37.3333 27.9974V30.3307C37.3333 31.6194 36.2886 32.6641 34.9999 32.6641H32.6666C31.3779 32.6641 30.3333 31.6194 30.3333 30.3307V27.9974Z" fill="#777779"/>
<path d="M18.6665 37.3294C18.6665 36.0408 19.7112 34.9961 20.9998 34.9961H23.3332C24.6218 34.9961 25.6665 36.0408 25.6665 37.3294V39.6628C25.6665 40.9514 24.6218 41.9961 23.3332 41.9961H20.9998C19.7112 41.9961 18.6665 40.9514 18.6665 39.6628V37.3294Z" fill="#777779"/>
<path d="M30.3333 37.3294C30.3333 36.0408 31.3779 34.9961 32.6666 34.9961H34.9999C36.2886 34.9961 37.3333 36.0408 37.3333 37.3294V39.6628C37.3333 40.9514 36.2886 41.9961 34.9999 41.9961H32.6666C31.3779 41.9961 30.3333 40.9514 30.3333 39.6628V37.3294Z" fill="#777779"/>
</svg>
