<svg width="57" height="57" viewBox="0 0 57 57" fill="none" xmlns="http://www.w3.org/2000/svg">
<ellipse cx="42.0491" cy="41.5807" rx="4.67213" ry="5.13934" fill="#EFC300"/>
<circle cx="17.2875" cy="16.3519" r="7.0082" fill="#EFC300"/>
<path d="M55.1307 42.8749V39.3515C53.3309 38.7116 52.1938 38.5317 51.6215 37.1505V37.1494C51.047 35.7638 51.7305 34.823 52.5449 33.1081L50.0538 30.6171C48.3521 31.426 47.4015 32.1161 46.0126 31.5405H46.0115C44.6281 30.9671 44.4471 29.8224 43.8105 28.0312H40.2871C39.6526 29.8137 39.4705 30.966 38.086 31.5405H38.0849C36.6993 32.1161 35.7607 31.4337 34.0437 30.6171L31.5527 33.1081C32.3648 34.8175 33.0516 35.7616 32.476 37.1494C31.9015 38.535 30.7492 38.717 28.9668 39.3515V42.8749C30.7459 43.5072 31.9015 43.6915 32.476 45.076C33.0538 46.4736 32.3518 47.4373 31.5527 49.1172L34.0437 51.6093C35.7465 50.7993 36.6971 50.1103 38.0849 50.6859H38.086C39.4705 51.2594 39.6515 52.4073 40.2871 54.1952H43.8105C44.4449 52.4117 44.6281 51.2626 46.0202 50.6827H46.0213C47.3971 50.1114 48.3325 50.7928 50.0527 51.6104L52.5438 49.1183C51.7327 47.4144 51.0448 46.4659 51.6193 45.0781C52.1938 43.6925 53.3505 43.5083 55.1307 42.8749ZM42.0488 45.4739C39.6406 45.4739 37.6881 43.5214 37.6881 41.1132C37.6881 38.705 39.6406 36.7526 42.0488 36.7526C44.4569 36.7526 46.4094 38.705 46.4094 41.1132C46.4094 43.5214 44.4569 45.4739 42.0488 45.4739Z" fill="#777779"/>
<path d="M31.8493 22.7384L32.9396 18.7361C31.0591 17.4614 29.8017 16.911 29.5681 15.1679L29.5685 15.1666C29.3337 13.4179 30.4142 12.5572 31.8853 10.8572L29.7794 7.26949C27.5639 7.67037 26.2525 8.16489 24.8267 7.08834L24.8255 7.08801C23.4053 6.01559 23.5505 4.66028 23.3695 2.43194L19.3006 1.35954C18.0163 3.19108 17.4495 4.44457 15.6728 4.67577L15.6716 4.67544C13.8933 4.90755 13.0205 3.84668 11.2903 2.39658L7.64281 4.46796C8.05179 6.65684 8.5528 7.93826 7.45864 9.33945C6.36641 10.7385 4.97936 10.5946 2.72463 10.7728L1.63436 14.775C3.49333 16.0348 4.77081 16.5957 5.00586 18.3433C5.24065 20.1067 4.13167 20.9876 2.68902 22.6527L4.79459 26.2417C7.01172 25.8399 8.32273 25.3466 9.74727 26.4228L9.74853 26.4231C11.17 27.4959 11.0237 28.8549 11.2045 31.0792L15.2734 32.1516C16.558 30.3188 17.1251 29.0694 18.9122 28.8343L18.9135 28.8346C20.6791 28.6045 21.5484 29.6631 23.282 31.1155L26.9299 29.0429C26.5205 26.8605 26.0196 25.5738 27.1125 24.1723C28.2047 22.7732 29.5975 22.916 31.8493 22.7384ZM15.9376 21.7089C13.1566 20.9759 11.506 18.1638 12.2512 15.4283C12.9963 12.6929 15.8553 11.0693 18.6363 11.8023C21.4174 12.5353 23.068 15.3474 22.3228 18.0828C21.5776 20.8182 18.7187 22.4418 15.9376 21.7089Z" fill="#777779"/>
</svg>
