<svg width="20" height="20" viewBox="0 0 20 20" fill="none" xmlns="http://www.w3.org/2000/svg">
<g clip-path="url(#clip0_544_30944)">
<path d="M15 6.66536H14.1667V4.9987C14.1667 2.6987 12.3 0.832031 10 0.832031C7.70001 0.832031 5.83334 2.6987 5.83334 4.9987V6.66536H5.00001C4.08334 6.66536 3.33334 7.41536 3.33334 8.33203V16.6654C3.33334 17.582 4.08334 18.332 5.00001 18.332H15C15.9167 18.332 16.6667 17.582 16.6667 16.6654V8.33203C16.6667 7.41536 15.9167 6.66536 15 6.66536ZM7.50001 4.9987C7.50001 3.61536 8.61668 2.4987 10 2.4987C11.3833 2.4987 12.5 3.61536 12.5 4.9987V6.66536H7.50001V4.9987ZM15 16.6654H5.00001V8.33203H15V16.6654ZM10 14.1654C10.9167 14.1654 11.6667 13.4154 11.6667 12.4987C11.6667 11.582 10.9167 10.832 10 10.832C9.08334 10.832 8.33334 11.582 8.33334 12.4987C8.33334 13.4154 9.08334 14.1654 10 14.1654Z" fill="#373935"/>
</g>
<defs>
<clipPath id="clip0_544_30944">
<rect width="20" height="20" fill="white"/>
</clipPath>
</defs>
</svg>
