<svg width="20" height="20" viewBox="0 0 20 20" fill="none" xmlns="http://www.w3.org/2000/svg">
<g clip-path="url(#clip0_544_30949)">
<path d="M10 1.66797C5.40001 1.66797 1.66667 5.4013 1.66667 10.0013C1.66667 14.6013 5.40001 18.3346 10 18.3346C14.6 18.3346 18.3333 14.6013 18.3333 10.0013C18.3333 5.4013 14.6 1.66797 10 1.66797ZM3.33334 10.0013C3.33334 9.49297 3.40001 8.99297 3.50834 8.51797L7.49167 12.5013V13.3346C7.49167 14.2513 8.24167 15.0013 9.15834 15.0013V16.6096C5.88334 16.193 3.33334 13.393 3.33334 10.0013ZM14.9083 14.5013C14.6917 13.8263 14.075 13.3346 13.325 13.3346H12.4917V10.8346C12.4917 10.3763 12.1167 10.0013 11.6583 10.0013H6.65834V8.33464H8.325C8.78334 8.33464 9.15834 7.95964 9.15834 7.5013V5.83464H10.825C11.7417 5.83464 12.4917 5.08464 12.4917 4.16797V3.8263C14.9333 4.80964 16.6667 7.20964 16.6667 10.0013C16.6667 11.7346 15.9917 13.318 14.9083 14.5013Z" fill="#373935"/>
</g>
<defs>
<clipPath id="clip0_544_30949">
<rect width="20" height="20" fill="white"/>
</clipPath>
</defs>
</svg>
