<svg width="20" height="20" viewBox="0 0 20 20" fill="none" xmlns="http://www.w3.org/2000/svg">
<g clip-path="url(#clip0_544_30952)">
<path d="M10.4167 8.33411C10.4167 6.95911 9.29166 5.83411 7.91666 5.83411C6.54166 5.83411 5.41666 6.95911 5.41666 8.33411C5.41666 9.70911 6.54166 10.8341 7.91666 10.8341C9.29166 10.8341 10.4167 9.70911 10.4167 8.33411ZM7.91666 9.16745C7.45833 9.16745 7.08333 8.79245 7.08333 8.33411C7.08333 7.87578 7.45833 7.50078 7.91666 7.50078C8.37499 7.50078 8.74999 7.87578 8.74999 8.33411C8.74999 8.79245 8.37499 9.16745 7.91666 9.16745ZM13.3333 10.8341C14.2583 10.8341 15 10.0924 15 9.16745C15 8.24245 14.2583 7.50078 13.3333 7.50078C12.4083 7.50078 11.6583 8.24245 11.6667 9.16745C11.6667 10.0924 12.4083 10.8341 13.3333 10.8341ZM9.99166 1.67578C5.39166 1.67578 1.65833 5.40911 1.65833 10.0091C1.65833 14.6091 5.39166 18.3424 9.99166 18.3424C14.5917 18.3424 18.325 14.6091 18.325 10.0091C18.325 5.40911 14.5917 1.67578 9.99166 1.67578ZM4.86666 14.2674C5.43333 13.8174 6.75833 13.3424 7.91666 13.3424C7.97499 13.3424 8.04166 13.3508 8.10833 13.3508C8.30832 12.8174 8.66666 12.2758 9.19166 11.8008C8.72499 11.7174 8.28333 11.6674 7.91666 11.6674C6.83333 11.6674 5.09166 12.0424 3.97499 12.8591C3.55833 11.9924 3.32499 11.0258 3.32499 10.0008C3.32499 6.32578 6.31666 3.33411 9.99166 3.33411C13.6667 3.33411 16.6583 6.32578 16.6583 10.0008C16.6583 11.0008 16.4333 11.9508 16.0333 12.8091C15.2 12.3174 14.0667 12.0841 13.3333 12.0841C12.0667 12.0841 9.58333 12.7591 9.58333 14.3341V16.6508C7.69166 16.5424 6.00833 15.6424 4.86666 14.2674Z" fill="#373935"/>
</g>
<defs>
<clipPath id="clip0_544_30952">
<rect width="20" height="20" fill="white"/>
</clipPath>
</defs>
</svg>
