<svg width="24" height="24" viewBox="0 0 24 24" fill="none" xmlns="http://www.w3.org/2000/svg">
<path fill-rule="evenodd" clip-rule="evenodd" d="M20 5.5H4C3.72386 5.5 3.5 5.72386 3.5 6V20C3.5 20.2761 3.72386 20.5 4 20.5H20C20.2761 20.5 20.5 20.2761 20.5 20V6C20.5 5.72386 20.2761 5.5 20 5.5ZM4 4C2.89543 4 2 4.89543 2 6V20C2 21.1046 2.89543 22 4 22H20C21.1046 22 22 21.1046 22 20V6C22 4.89543 21.1046 4 20 4H4Z" fill="#777779"/>
<path fill-rule="evenodd" clip-rule="evenodd" d="M7 2.25C7.41421 2.25 7.75 2.58579 7.75 3L7.75 6C7.75 6.41421 7.41421 6.75 7 6.75C6.58579 6.75 6.25 6.41421 6.25 6L6.25 3C6.25 2.58579 6.58579 2.25 7 2.25Z" fill="#777779"/>
<path fill-rule="evenodd" clip-rule="evenodd" d="M17 2.25C17.4142 2.25 17.75 2.58579 17.75 3L17.75 6C17.75 6.41421 17.4142 6.75 17 6.75C16.5858 6.75 16.25 6.41421 16.25 6L16.25 3C16.25 2.58579 16.5858 2.25 17 2.25Z" fill="#777779"/>
<path fill-rule="evenodd" clip-rule="evenodd" d="M2.25 8C2.25 7.58579 2.58579 7.25 3 7.25H21C21.4142 7.25 21.75 7.58579 21.75 8C21.75 8.41421 21.4142 8.75 21 8.75H3C2.58579 8.75 2.25 8.41421 2.25 8Z" fill="#777779"/>
<path d="M9.5 14.5L11.5 16.5L16.5 12.5" stroke="#777779" stroke-width="1.5" stroke-linecap="round"/>
<path d="M7 15L8.5 16.5M11.5 13.5L16 10.5" stroke="#777779" stroke-width="1.5" stroke-linecap="round"/>
</svg>
