<svg width="24" height="25" viewBox="0 0 24 25" fill="none" xmlns="http://www.w3.org/2000/svg">
<path fill-rule="evenodd" clip-rule="evenodd" d="M11.75 18.75C11.3358 18.75 11 18.4142 11 18L11 4.5C11 4.08579 11.3358 3.75 11.75 3.75C12.1642 3.75 12.5 4.08579 12.5 4.5L12.5 18C12.5 18.4142 12.1642 18.75 11.75 18.75Z" fill="#085BE7"/>
<path fill-rule="evenodd" clip-rule="evenodd" d="M3 15.75C3.41421 15.75 3.75 16.0858 3.75 16.5L3.75 19.75L20.25 19.75V16.5C20.25 16.0858 20.5858 15.75 21 15.75C21.4142 15.75 21.75 16.0858 21.75 16.5V20.5C21.75 20.9142 21.4142 21.25 21 21.25L3 21.25C2.58579 21.25 2.25 20.9142 2.25 20.5L2.25 16.5C2.25 16.0858 2.58579 15.75 3 15.75Z" fill="#085BE7"/>
<path fill-rule="evenodd" clip-rule="evenodd" d="M6.98503 9.04526C6.68389 8.76085 6.67033 8.28617 6.95474 7.98503L11.2047 3.48503C11.3439 3.33772 11.5367 3.25297 11.7393 3.25007C11.9419 3.24718 12.1371 3.32639 12.2803 3.46967L16.7803 7.96967C17.0732 8.26256 17.0732 8.73743 16.7803 9.03033C16.4874 9.32322 16.0126 9.32322 15.7197 9.03033L11.7654 5.07603L8.04526 9.01496C7.76085 9.3161 7.28617 9.32967 6.98503 9.04526Z" fill="#085BE7"/>
</svg>
