<svg width="24" height="24" viewBox="0 0 24 24" fill="none" xmlns="http://www.w3.org/2000/svg">
<circle cx="12" cy="6" r="4" fill="#EFC300" stroke="#777779" stroke-width="1.5"/>
<path d="M12 13H7C4.79086 13 3 14.7909 3 17V21" stroke="#777779" stroke-width="1.5" stroke-linecap="round"/>
<path d="M21 17.5387V16.4613C20.4497 16.2657 20.102 16.2107 19.927 15.7883V15.788C19.7513 15.3643 19.9603 15.0767 20.2093 14.5523L19.4477 13.7907C18.9273 14.038 18.6367 14.249 18.212 14.073H18.2117C17.7887 13.8977 17.7333 13.5477 17.5387 13H16.4613C16.2673 13.545 16.2117 13.8973 15.7883 14.073H15.788C15.3643 14.249 15.0773 14.0403 14.5523 13.7907L13.7907 14.5523C14.039 15.075 14.249 15.3637 14.073 15.788C13.8973 16.2117 13.545 16.2673 13 16.4613V17.5387C13.544 17.732 13.8973 17.7883 14.073 18.2117C14.2497 18.639 14.035 18.9337 13.7907 19.4473L14.5523 20.2093C15.073 19.9617 15.3637 19.751 15.788 19.927H15.7883C16.2117 20.1023 16.267 20.4533 16.4613 21H17.5387C17.7327 20.4547 17.7887 20.1033 18.2143 19.926H18.2147C18.6353 19.7513 18.9213 19.9597 19.4473 20.2097L20.209 19.4477C19.961 18.9267 19.7507 18.6367 19.9263 18.2123C20.102 17.7887 20.4557 17.7323 21 17.5387ZM17 18.3333C16.2637 18.3333 15.6667 17.7363 15.6667 17C15.6667 16.2637 16.2637 15.6667 17 15.6667C17.7363 15.6667 18.3333 16.2637 18.3333 17C18.3333 17.7363 17.7363 18.3333 17 18.3333Z" fill="#777779"/>
</svg>
