<svg width="48" height="17" viewBox="0 0 48 17" fill="none" xmlns="http://www.w3.org/2000/svg">
<g clip-path="url(#clip0_756_41553)">
<path d="M20.8 16.2697H16.9116L19.3437 0.78125H23.2318L20.8 16.2697Z" fill="#00579F"/>
<path d="M34.8955 1.1594C34.1286 0.846017 32.9121 0.5 31.408 0.5C27.5681 0.5 24.8641 2.60895 24.8475 5.62412C24.8156 7.8487 26.7835 9.08429 28.2553 9.82604C29.7597 10.584 30.2711 11.0787 30.2711 11.7543C30.2557 12.7919 29.0555 13.2702 27.936 13.2702C26.3836 13.2702 25.5518 13.0236 24.2877 12.4464L23.7757 12.1989L23.2316 15.6757C24.1435 16.1036 25.8237 16.4834 27.5681 16.5C31.648 16.5 34.3042 14.4237 34.3357 11.2105C34.3512 9.44739 33.3121 8.09639 31.0718 6.99242C29.7118 6.28374 28.879 5.80589 28.879 5.08078C28.8949 4.4216 29.5834 3.74643 31.1186 3.74643C32.3827 3.71336 33.3114 4.02631 34.015 4.33948L34.3667 4.50394L34.8955 1.1594Z" fill="#00579F"/>
<path d="M40.0633 10.7827C40.3835 9.89289 41.6157 6.44914 41.6157 6.44914C41.5995 6.48221 41.9352 5.54293 42.1272 4.9663L42.399 6.30088C42.399 6.30088 43.1353 10.0083 43.2952 10.7827C42.6875 10.7827 40.8313 10.7827 40.0633 10.7827ZM44.8629 0.78125H41.8553C40.9278 0.78125 40.2232 1.06113 39.823 2.06633L34.0474 16.2695H38.1273C38.1273 16.2695 38.799 14.3578 38.9433 13.9461C39.3909 13.9461 43.3598 13.9461 43.9356 13.9461C44.0473 14.4899 44.3996 16.2695 44.3996 16.2695H47.9998L44.8629 0.78125Z" fill="#00579F"/>
<path d="M13.6639 0.78125L9.85596 11.3429L9.43985 9.20085C8.73584 6.72924 6.5279 4.04388 4.06396 2.70865L7.55192 16.2532H11.6637L17.7755 0.78125H13.6639Z" fill="#00579F"/>
<path d="M6.31995 0.78125H0.0640009L0 1.0942C4.88004 2.3795 8.11199 5.47766 9.43985 9.20151L8.07988 2.08319C7.85598 1.09398 7.16792 0.813881 6.31995 0.78125Z" fill="#FAA61A"/>
</g>
<defs>
<clipPath id="clip0_756_41553">
<rect width="48" height="16" fill="white" transform="translate(0 0.5)"/>
</clipPath>
</defs>
</svg>
